<?xml version="1.0" standalone="no"?>
<!DOCTYPE svg PUBLIC "-//W3C//DTD SVG 20010904//EN"
 "http://www.w3.org/TR/2001/REC-SVG-20010904/DTD/svg10.dtd">
<svg version="1.0" xmlns="http://www.w3.org/2000/svg"
 width="340.000000pt" height="65.000000pt" viewBox="0 0 340.000000 65.000000"
 preserveAspectRatio="xMidYMid meet">

<g transform="translate(0.000000,65.000000) scale(0.100000,-0.100000)"
fill="#000000" stroke="none">
<path d="M2157 549 c-60 -9 -106 -36 -134 -79 -21 -29 -23 -45 -23 -145 0
-100 2 -116 23 -145 36 -55 79 -74 176 -78 75 -3 92 0 131 20 80 41 110 119
95 254 -7 72 -33 118 -82 147 -41 23 -123 35 -186 26z m91 -131 c15 -15 16
-152 2 -179 -13 -23 -53 -25 -74 -3 -19 18 -23 143 -6 175 12 22 59 26 78 7z"/>
<path d="M1140 527 c-45 -24 -80 -74 -80 -115 0 -39 28 -87 63 -107 17 -11 66
-26 107 -35 53 -11 75 -20 75 -30 0 -19 -56 -26 -84 -10 -20 10 -158 16 -167
7 -11 -11 10 -59 37 -85 40 -38 82 -50 169 -51 157 -2 251 86 206 192 -19 46
-60 71 -139 86 -87 17 -97 21 -97 37 0 16 55 20 65 4 3 -5 42 -10 86 -10 72 0
79 2 79 20 0 27 -56 88 -98 105 -55 24 -170 20 -222 -8z"/>
<path d="M1530 486 c0 -72 4 -76 76 -76 l43 0 3 -152 3 -153 75 0 75 0 3 153
3 152 53 0 c67 0 78 12 74 82 l-3 53 -202 3 -203 2 0 -64z"/>
<path d="M2512 328 l3 -223 75 0 75 0 3 68 c4 86 20 88 57 5 15 -35 33 -66 39
-70 20 -14 156 -9 156 5 0 6 -18 44 -39 84 l-38 72 30 30 c40 39 48 118 19
170 -33 61 -77 76 -240 79 l-142 4 2 -224z m232 86 c10 -27 -12 -54 -44 -54
-28 0 -30 3 -30 35 0 33 2 35 34 35 22 0 36 -6 40 -16z"/>
<path d="M3002 328 l3 -223 180 0 180 0 0 55 0 55 -105 5 c-89 4 -105 8 -108
23 -3 15 6 17 86 17 104 0 115 7 110 72 l-3 43 -97 3 c-97 3 -98 3 -98 27 0
25 0 25 105 25 l105 0 0 60 0 60 -180 0 -180 0 2 -222z"/>
<path d="M230 285 l0 -165 49 0 c56 0 61 6 61 83 l1 52 17 -27 c21 -35 54 -36
81 -2 l20 25 3 -63 3 -63 53 -3 52 -3 0 165 0 166 -48 0 -48 0 -35 -60 c-18
-33 -36 -60 -39 -60 -3 0 -21 27 -39 60 l-35 60 -48 0 -48 0 0 -165z"/>
<path d="M620 439 c0 -6 23 -56 50 -111 42 -83 50 -109 50 -154 l0 -54 55 0
55 0 0 50 c0 41 10 71 55 160 30 60 55 112 55 115 0 3 -25 5 -55 5 l-55 0 -26
-52 -26 -51 -26 49 c-27 48 -28 49 -79 52 -35 2 -53 -1 -53 -9z"/>
</g>
</svg>
